<?xml version="1.0" encoding="UTF-8" standalone="no"?>
<svg
   width="1046"
   height="1387"
   viewBox="0 0 1046 1387"
   fill="none"
   version="1.1"
   id="svg2"
   sodipodi:docname="Stacked Logo White.svg"
   inkscape:version="1.4.2 (ebf0e940, 2025-05-08)"
   xmlns:inkscape="http://www.inkscape.org/namespaces/inkscape"
   xmlns:sodipodi="http://sodipodi.sourceforge.net/DTD/sodipodi-0.dtd"
   xmlns="http://www.w3.org/2000/svg"
   xmlns:svg="http://www.w3.org/2000/svg">
  <defs
     id="defs2" />
  <sodipodi:namedview
     id="namedview2"
     pagecolor="#ffffff"
     bordercolor="#000000"
     borderopacity="0.25"
     inkscape:showpageshadow="2"
     inkscape:pageopacity="0.0"
     inkscape:pagecheckerboard="0"
     inkscape:deskcolor="#d1d1d1"
     inkscape:zoom="0.58111031"
     inkscape:cx="523.13648"
     inkscape:cy="693.5"
     inkscape:window-width="976"
     inkscape:window-height="955"
     inkscape:window-x="0"
     inkscape:window-y="25"
     inkscape:window-maximized="0"
     inkscape:current-layer="svg2" />
  <path
     d="M885 294.183C866.864 219.315 800.969 117.88 651.648 94.9365C543.436 -81.367 367.515 75.0117 464.846 172.22C514.66 217.256 542.589 242.506 592.404 287.542C710.079 405.069 666.539 545.598 530.136 617.574M464.846 840V644.376C488.438 637.084 510.272 628.056 530.136 617.574M530.136 617.574V840M139 589.431C560.363 -78.3482 885 681.206 139 590.035M530.136 84.0684V84.6722"
     stroke="white"
     stroke-width="30"
     stroke-linecap="round"
     id="path1" />
  <path
     d="M145.454 907.875V1087H121.204V1005.5H24.5791V1087H0.329103V907.875H24.5791V987.75H121.204V907.875H145.454ZM286.372 1020.5L258.247 947.625C257.414 945.458 256.539 942.958 255.622 940.125C254.705 937.208 253.83 934.125 252.997 930.875C251.247 937.625 249.455 943.25 247.622 947.75L219.497 1020.5H286.372ZM336.872 1087H318.122C315.955 1087 314.205 1086.46 312.872 1085.37C311.539 1084.29 310.539 1082.92 309.872 1081.25L293.122 1038H212.747L195.997 1081.25C195.497 1082.75 194.539 1084.08 193.122 1085.25C191.705 1086.42 189.955 1087 187.872 1087H169.122L240.747 907.875H265.247L336.872 1087ZM515.687 997.5C515.687 1010.92 513.562 1023.12 509.312 1034.12C505.062 1045.12 499.062 1054.54 491.312 1062.37C483.562 1070.21 474.228 1076.29 463.312 1080.62C452.478 1084.87 440.478 1087 427.312 1087H360.437V907.875H427.312C440.478 907.875 452.478 910.042 463.312 914.375C474.228 918.625 483.562 924.708 491.312 932.625C499.062 940.458 505.062 949.875 509.312 960.875C513.562 971.875 515.687 984.083 515.687 997.5ZM490.812 997.5C490.812 986.5 489.312 976.667 486.312 968C483.312 959.333 479.062 952 473.562 946C468.062 940 461.395 935.417 453.562 932.25C445.728 929.083 436.978 927.5 427.312 927.5H384.687V1067.37H427.312C436.978 1067.37 445.728 1065.79 453.562 1062.62C461.395 1059.46 468.062 1054.92 473.562 1049C479.062 1043 483.312 1035.67 486.312 1027C489.312 1018.33 490.812 1008.5 490.812 997.5ZM640.864 1020.5L612.739 947.625C611.906 945.458 611.031 942.958 610.114 940.125C609.198 937.208 608.323 934.125 607.489 930.875C605.739 937.625 603.948 943.25 602.114 947.75L573.989 1020.5H640.864ZM691.364 1087H672.614C670.448 1087 668.698 1086.46 667.364 1085.37C666.031 1084.29 665.031 1082.92 664.364 1081.25L647.614 1038H567.239L550.489 1081.25C549.989 1082.75 549.031 1084.08 547.614 1085.25C546.198 1086.42 544.448 1087 542.364 1087H523.614L595.239 907.875H619.739L691.364 1087ZM870.179 997.5C870.179 1010.92 868.054 1023.12 863.804 1034.12C859.554 1045.12 853.554 1054.54 845.804 1062.37C838.054 1070.21 828.72 1076.29 817.804 1080.62C806.97 1084.87 794.97 1087 781.804 1087H714.929V907.875H781.804C794.97 907.875 806.97 910.042 817.804 914.375C828.72 918.625 838.054 924.708 845.804 932.625C853.554 940.458 859.554 949.875 863.804 960.875C868.054 971.875 870.179 984.083 870.179 997.5ZM845.304 997.5C845.304 986.5 843.804 976.667 840.804 968C837.804 959.333 833.554 952 828.054 946C822.554 940 815.887 935.417 808.054 932.25C800.22 929.083 791.47 927.5 781.804 927.5H739.179V1067.37H781.804C791.47 1067.37 800.22 1065.79 808.054 1062.62C815.887 1059.46 822.554 1054.92 828.054 1049C833.554 1043 837.804 1035.67 840.804 1027C843.804 1018.33 845.304 1008.5 845.304 997.5ZM995.356 1020.5L967.231 947.625C966.398 945.458 965.523 942.958 964.606 940.125C963.69 937.208 962.815 934.125 961.981 930.875C960.231 937.625 958.44 943.25 956.606 947.75L928.481 1020.5H995.356ZM1045.86 1087H1027.11C1024.94 1087 1023.19 1086.46 1021.86 1085.37C1020.52 1084.29 1019.52 1082.92 1018.86 1081.25L1002.11 1038H921.731L904.981 1081.25C904.481 1082.75 903.523 1084.08 902.106 1085.25C900.69 1086.42 898.94 1087 896.856 1087H878.106L949.731 907.875H974.231L1045.86 1087ZM206.001 1207.87V1387H181.751V1305.5H85.126V1387H60.876V1207.87H85.126V1287.75H181.751V1207.87H206.001ZM362.294 1367.25L362.169 1387H251.794V1207.87H362.169V1227.62H276.044V1287.12H345.794V1306.12H276.044V1367.25H362.294ZM491.206 1320.5L463.081 1247.62C462.248 1245.46 461.373 1242.96 460.456 1240.12C459.539 1237.21 458.664 1234.12 457.831 1230.87C456.081 1237.62 454.289 1243.25 452.456 1247.75L424.331 1320.5H491.206ZM541.706 1387H522.956C520.789 1387 519.039 1386.46 517.706 1385.37C516.373 1384.29 515.373 1382.92 514.706 1381.25L497.956 1338H417.581L400.831 1381.25C400.331 1382.75 399.373 1384.08 397.956 1385.25C396.539 1386.42 394.789 1387 392.706 1387H373.956L445.581 1207.87H470.081L541.706 1387ZM666.896 1366.62V1387H565.271V1207.87H589.396V1366.62H666.896ZM791.376 1228.25H733.376V1387H709.251V1228.25H651.126V1207.87H791.376V1228.25ZM963.081 1207.87V1387H938.831V1305.5H842.206V1387H817.956V1207.87H842.206V1287.75H938.831V1207.87H963.081Z"
     fill="white"
     id="path2" />
</svg>
