<svg width="2928" height="251" viewBox="0 0 2928 251" fill="none" xmlns="http://www.w3.org/2000/svg">
<path d="M203.2 0.224985V251H169.25V136.9H33.975V251H0.0250023V0.224985H33.975V112.05H169.25V0.224985H203.2ZM400.485 157.9L361.11 55.875C359.943 52.8417 358.718 49.3417 357.435 45.375C356.152 41.2917 354.927 36.975 353.76 32.425C351.31 41.875 348.802 49.75 346.235 56.05L306.86 157.9H400.485ZM471.185 251H444.935C441.902 251 439.452 250.242 437.585 248.725C435.719 247.208 434.319 245.283 433.385 242.95L409.935 182.4H297.41L273.96 242.95C273.26 245.05 271.918 246.917 269.935 248.55C267.952 250.183 265.502 251 262.585 251H236.335L336.61 0.224985H370.91L471.185 251ZM721.525 125.7C721.525 144.483 718.55 161.575 712.6 176.975C706.65 192.375 698.25 205.558 687.4 216.525C676.55 227.492 663.484 236.008 648.2 242.075C633.034 248.025 616.234 251 597.8 251H504.175V0.224985H597.8C616.234 0.224985 633.034 3.25832 648.2 9.32499C663.484 15.275 676.55 23.7917 687.4 34.875C698.25 45.8417 706.65 59.025 712.6 74.425C718.55 89.825 721.525 106.917 721.525 125.7ZM686.7 125.7C686.7 110.3 684.6 96.5333 680.4 84.4C676.2 72.2667 670.25 62 662.55 53.6C654.85 45.2 645.517 38.7833 634.55 34.35C623.584 29.9167 611.334 27.7 597.8 27.7H538.125V223.525H597.8C611.334 223.525 623.584 221.308 634.55 216.875C645.517 212.442 654.85 206.083 662.55 197.8C670.25 189.4 676.2 179.133 680.4 167C684.6 154.867 686.7 141.1 686.7 125.7ZM896.774 157.9L857.399 55.875C856.233 52.8417 855.008 49.3417 853.724 45.375C852.441 41.2917 851.216 36.975 850.049 32.425C847.599 41.875 845.091 49.75 842.524 56.05L803.149 157.9H896.774ZM967.474 251H941.224C938.191 251 935.741 250.242 933.874 248.725C932.008 247.208 930.608 245.283 929.674 242.95L906.224 182.4H793.699L770.249 242.95C769.549 245.05 768.208 246.917 766.224 248.55C764.241 250.183 761.791 251 758.874 251H732.624L832.899 0.224985H867.199L967.474 251ZM1217.81 125.7C1217.81 144.483 1214.84 161.575 1208.89 176.975C1202.94 192.375 1194.54 205.558 1183.69 216.525C1172.84 227.492 1159.77 236.008 1144.49 242.075C1129.32 248.025 1112.52 251 1094.09 251H1000.46V0.224985H1094.09C1112.52 0.224985 1129.32 3.25832 1144.49 9.32499C1159.77 15.275 1172.84 23.7917 1183.69 34.875C1194.54 45.8417 1202.94 59.025 1208.89 74.425C1214.84 89.825 1217.81 106.917 1217.81 125.7ZM1182.99 125.7C1182.99 110.3 1180.89 96.5333 1176.69 84.4C1172.49 72.2667 1166.54 62 1158.84 53.6C1151.14 45.2 1141.81 38.7833 1130.84 34.35C1119.87 29.9167 1107.62 27.7 1094.09 27.7H1034.41V223.525H1094.09C1107.62 223.525 1119.87 221.308 1130.84 216.875C1141.81 212.442 1151.14 206.083 1158.84 197.8C1166.54 189.4 1172.49 179.133 1176.69 167C1180.89 154.867 1182.99 141.1 1182.99 125.7ZM1393.06 157.9L1353.69 55.875C1352.52 52.8417 1351.3 49.3417 1350.01 45.375C1348.73 41.2917 1347.5 36.975 1346.34 32.425C1343.89 41.875 1341.38 49.75 1338.81 56.05L1299.44 157.9H1393.06ZM1463.76 251H1437.51C1434.48 251 1432.03 250.242 1430.16 248.725C1428.3 247.208 1426.9 245.283 1425.96 242.95L1402.51 182.4H1289.99L1266.54 242.95C1265.84 245.05 1264.5 246.917 1262.51 248.55C1260.53 250.183 1258.08 251 1255.16 251H1228.91L1329.19 0.224985H1363.49L1463.76 251ZM1867.41 0.224985V251H1833.46V136.9H1698.18V251H1664.23V0.224985H1698.18V112.05H1833.46V0.224985H1867.41ZM2086.22 223.35L2086.04 251H1931.52V0.224985H2086.04V27.875H1965.47V111.175H2063.12V137.775H1965.47V223.35H2086.22ZM2266.7 157.9L2227.32 55.875C2226.15 52.8417 2224.93 49.3417 2223.65 45.375C2222.36 41.2917 2221.14 36.975 2219.97 32.425C2217.52 41.875 2215.01 49.75 2212.45 56.05L2173.07 157.9H2266.7ZM2337.4 251H2311.15C2308.11 251 2305.66 250.242 2303.8 248.725C2301.93 247.208 2300.53 245.283 2299.6 242.95L2276.15 182.4H2163.62L2140.17 242.95C2139.47 245.05 2138.13 246.917 2136.15 248.55C2134.16 250.183 2131.71 251 2128.8 251H2102.55L2202.82 0.224985H2237.12L2337.4 251ZM2512.66 222.475V251H2370.39V0.224985H2404.16V222.475H2512.66ZM2686.93 28.75H2605.73V251H2571.96V28.75H2490.58V0.224985H2686.93V28.75ZM2927.32 0.224985V251H2893.37V136.9H2758.1V251H2724.15V0.224985H2758.1V112.05H2893.37V0.224985H2927.32Z" fill="#1E1E1E"/>
</svg>
