<svg width="321" height="321" viewBox="0 0 321 321" fill="none" xmlns="http://www.w3.org/2000/svg">
<circle cx="160.5" cy="160.5" r="160.5" fill="#F9F8F8"/>
<path d="M0 31C0 13.8792 13.8792 0 31 0H290C307.121 0 321 13.8792 321 31V290C321 307.121 307.121 321 290 321H31C13.8792 321 0 307.121 0 290V31Z" fill="#2D6356"/>
<path d="M321 160.5C321 249.142 249.142 321 160.5 321C71.8583 321 0 249.142 0 160.5C0 71.8583 71.8583 0 160.5 0C249.142 0 321 71.8583 321 160.5Z" fill="#2D6356"/>
<path d="M162.25 232H151.25V321H162.25V232Z" fill="white"/>
<path d="M125.25 321V241H136.25V321H125.25Z" fill="white"/>
<path fill-rule="evenodd" clip-rule="evenodd" d="M217 43.5004C186 -1.5 141.548 36.5408 154.5 69.0004C159.407 81.2966 168.847 91.0213 177.949 100.397C192.873 115.771 206.886 130.206 198.5 153.5L197.5 155.5L196.5 153.5C148.5 58 43 183 32.0001 238C148.279 275.104 307.029 193.508 193 74C217 51 266.803 68.5619 280 108.5C282 114 289.117 114.94 291.5 108.5C295.517 97.6125 264.105 46.2092 217 43.5004Z" fill="white"/>
<g filter="url(#filter0_i_3_3)">
<path d="M54 226.5L54.5 226C165 23 260 252.5 54.5 226.5L54 226.5Z" fill="#32517A"/>
</g>
<g filter="url(#filter1_i_3_3)">
<circle cx="187.5" cy="43.5" r="5.5" fill="#32517A"/>
</g>
<defs>
<filter id="filter0_i_3_3" x="54" y="141.4" width="121.567" height="91.1855" filterUnits="userSpaceOnUse" color-interpolation-filters="sRGB">
<feFlood flood-opacity="0" result="BackgroundImageFix"/>
<feBlend mode="normal" in="SourceGraphic" in2="BackgroundImageFix" result="shape"/>
<feColorMatrix in="SourceAlpha" type="matrix" values="0 0 0 0 0 0 0 0 0 0 0 0 0 0 0 0 0 0 127 0" result="hardAlpha"/>
<feOffset dy="4"/>
<feGaussianBlur stdDeviation="2"/>
<feComposite in2="hardAlpha" operator="arithmetic" k2="-1" k3="1"/>
<feColorMatrix type="matrix" values="0 0 0 0 0 0 0 0 0 0 0 0 0 0 0 0 0 0 0.25 0"/>
<feBlend mode="normal" in2="shape" result="effect1_innerShadow_3_3"/>
</filter>
<filter id="filter1_i_3_3" x="182" y="38" width="11" height="15" filterUnits="userSpaceOnUse" color-interpolation-filters="sRGB">
<feFlood flood-opacity="0" result="BackgroundImageFix"/>
<feBlend mode="normal" in="SourceGraphic" in2="BackgroundImageFix" result="shape"/>
<feColorMatrix in="SourceAlpha" type="matrix" values="0 0 0 0 0 0 0 0 0 0 0 0 0 0 0 0 0 0 127 0" result="hardAlpha"/>
<feOffset dy="4"/>
<feGaussianBlur stdDeviation="2"/>
<feComposite in2="hardAlpha" operator="arithmetic" k2="-1" k3="1"/>
<feColorMatrix type="matrix" values="0 0 0 0 0 0 0 0 0 0 0 0 0 0 0 0 0 0 0.25 0"/>
<feBlend mode="normal" in2="shape" result="effect1_innerShadow_3_3"/>
</filter>
</defs>
</svg>
